<?xml version="1.0" standalone="no"?>
<!DOCTYPE svg PUBLIC "-//W3C//DTD SVG 20010904//EN"
 "http://www.w3.org/TR/2001/REC-SVG-20010904/DTD/svg10.dtd">
<svg version="1.0" xmlns="http://www.w3.org/2000/svg"
 width="1536.000000pt" height="1024.000000pt" viewBox="0 0 1536.000000 1024.000000"
 preserveAspectRatio="xMidYMid meet">

<g transform="translate(0.000000,1024.000000) scale(0.100000,-0.100000)"
fill="#000000" stroke="none">
<path d="M10260 7805 c-230 -28 -401 -65 -638 -139 -117 -37 -356 -124 -427
-156 -22 -10 -69 -30 -104 -45 -76 -31 -378 -179 -469 -229 -137 -76 -327
-197 -447 -286 -64 -47 -276 -221 -311 -255 -12 -11 -58 -54 -104 -95 -70 -64
-200 -200 -317 -332 -46 -52 -237 -307 -259 -346 -39 -69 -51 -88 -79 -132
-77 -120 -171 -350 -209 -510 -47 -198 -45 -465 4 -685 47 -212 86 -335 155
-490 7 -16 26 -61 43 -100 17 -38 43 -92 58 -120 73 -134 131 -235 166 -286
21 -31 38 -61 38 -67 0 -6 4 -12 8 -14 5 -1 27 -30 50 -63 23 -33 59 -85 81
-115 254 -351 317 -487 283 -608 -10 -34 -59 -80 -111 -105 -43 -20 -60 -22
-231 -22 -116 1 -234 7 -315 18 -487 65 -888 83 -1150 52 -83 -9 -181 -23
-220 -31 -164 -34 -353 -107 -461 -179 -62 -41 -149 -132 -180 -188 -25 -45
-29 -63 -29 -127 0 -62 5 -84 27 -125 30 -56 79 -112 121 -140 15 -10 25 -20
22 -24 -4 -3 -50 -5 -103 -3 -141 4 -595 -16 -752 -33 -318 -36 -545 -96 -758
-202 -51 -25 -91 -47 -90 -48 2 -2 43 10 92 26 172 56 416 94 681 105 124 5
244 0 530 -20 828 -58 889 -60 1520 -59 330 0 728 5 885 12 157 6 508 14 780
18 423 6 486 9 430 19 -104 19 -158 24 -135 14 18 -8 17 -9 -7 -9 -18 -1 -26
3 -22 12 3 9 -22 18 -83 31 -284 60 -580 141 -840 230 -57 19 -103 31 -103 28
0 -4 -4 -2 -8 3 -4 6 -68 33 -142 59 -74 27 -185 68 -245 92 -256 99 -650 218
-785 237 -19 3 -87 13 -150 22 -82 12 -162 16 -278 13 -89 -1 -162 0 -162 3 0
7 42 19 150 44 94 22 325 30 450 16 272 -32 495 -95 977 -277 287 -108 483
-173 693 -230 483 -132 1122 -247 1640 -295 153 -15 653 -15 850 0 505 37 624
43 765 37 218 -9 405 -35 645 -91 8 -2 39 -13 68 -24 80 -32 54 -9 -45 39
-194 95 -460 165 -748 196 -142 15 -643 36 -767 32 -42 -1 -80 1 -84 4 -3 4 8
15 24 26 44 26 104 98 131 157 19 41 23 61 19 115 -10 133 -102 242 -307 364
-81 47 -211 108 -211 98 0 -4 -4 -2 -8 4 -10 17 -193 84 -432 161 -524 167
-684 233 -847 345 -80 54 -176 148 -222 217 -90 133 -121 229 -121 377 0 157
35 250 137 360 42 45 184 154 201 154 5 0 12 4 14 8 2 5 26 23 53 42 28 19 56
40 63 47 7 7 19 16 25 20 20 13 72 85 91 127 25 54 17 134 -20 190 -35 52 -65
81 -139 136 -134 99 -172 162 -162 275 9 116 76 185 225 232 83 26 85 26 98 7
28 -39 80 -86 119 -107 61 -31 173 -29 241 6 125 64 193 205 160 332 -19 73
-58 130 -113 162 -46 26 -48 34 -33 100 13 55 -2 162 -31 229 -33 74 -70 126
-86 120 -8 -4 -11 -1 -7 5 9 16 -59 72 -136 113 -212 112 -433 80 -569 -83
-46 -55 -102 -92 -166 -111 -22 -6 -49 -18 -60 -26 -17 -13 -18 -17 -6 -50 12
-34 12 -37 -18 -68 -17 -18 -31 -41 -31 -53 0 -11 -7 -23 -15 -27 -8 -3 -15
-16 -15 -30 0 -13 -11 -38 -25 -54 -66 -78 -48 -129 61 -182 71 -35 104 -72
104 -117 -2 -154 -159 -274 -305 -233 -60 17 -129 79 -151 135 -46 121 31 332
223 613 101 148 270 357 398 491 94 98 309 309 365 357 25 22 52 46 60 53 47
46 321 256 410 316 58 39 107 73 110 76 7 9 205 120 265 149 48 23 60 24 255
25 192 1 210 3 289 27 144 45 147 78 9 78 -43 0 -78 3 -78 8 0 4 61 27 135 51
73 24 149 50 167 58 102 45 128 57 176 86 28 17 52 35 52 39 0 11 -83 8 -210
-7z m-273 -251 c-3 -3 -12 -4 -19 -1 -8 3 -5 6 6 6 11 1 17 -2 13 -5z m-1714
-5861 c-7 -2 -19 -2 -25 0 -7 3 -2 5 12 5 14 0 19 -2 13 -5z"/>
<path d="M3951 6913 c-37 -158 -61 -407 -61 -627 0 -163 22 -459 40 -551 5
-27 19 -97 30 -155 41 -211 134 -518 205 -675 7 -16 23 -52 35 -80 30 -69 124
-259 131 -265 4 -3 21 -34 40 -70 47 -91 199 -319 274 -411 7 -10 37 -48 67
-85 131 -167 408 -445 555 -557 34 -26 68 -53 75 -60 44 -41 261 -188 411
-276 78 -47 308 -161 324 -161 3 0 -12 12 -33 26 -135 92 -463 408 -566 546
-15 20 -34 42 -41 50 -7 7 -28 36 -47 63 -19 28 -37 52 -41 55 -18 16 -136
190 -186 275 -118 197 -259 485 -279 570 -4 17 -10 35 -14 40 -16 23 -83 245
-111 375 -38 167 -73 549 -56 594 6 14 20 9 101 -33 152 -78 394 -245 502
-346 173 -160 382 -389 440 -480 10 -16 22 -33 26 -36 9 -6 23 -27 122 -175
67 -101 186 -292 186 -299 0 -2 22 -42 49 -87 27 -46 67 -120 90 -165 23 -46
44 -83 46 -83 4 0 -12 39 -60 145 -15 33 -35 83 -45 110 -11 28 -37 97 -60
155 -91 233 -188 557 -231 771 -25 129 -49 315 -59 464 -8 111 -18 180 -33
225 -25 77 -100 210 -177 315 -112 152 -348 361 -570 506 -126 82 -366 203
-383 193 -7 -4 -9 -3 -5 1 15 16 -288 136 -507 200 -49 15 -103 31 -119 36
-47 15 -53 11 -65 -38z"/>
<path d="M11275 6936 c-112 -32 -344 -112 -445 -153 -161 -66 -561 -277 -590
-312 -3 -3 -27 -22 -55 -41 -59 -41 -55 -38 -175 -136 -104 -86 -213 -192
-275 -269 -22 -28 -46 -56 -53 -64 -7 -7 -11 -20 -8 -28 3 -8 2 -12 -3 -9 -11
7 -51 -45 -91 -118 -29 -53 -31 -62 -40 -233 -9 -176 -48 -492 -74 -608 -8
-33 -21 -94 -30 -135 -26 -120 -102 -369 -163 -534 -93 -253 -99 -269 -132
-344 -18 -41 -30 -76 -27 -79 3 -3 8 6 12 21 3 14 10 26 15 26 5 0 9 6 10 13
0 15 31 74 82 156 20 34 37 69 37 77 0 7 4 14 8 14 7 0 47 63 97 152 65 116
249 374 365 512 77 93 253 271 336 341 37 32 136 107 239 183 74 54 290 172
316 172 9 0 11 -37 6 -157 -10 -237 -40 -417 -117 -683 -31 -106 -96 -280
-111 -294 -5 -6 -9 -16 -9 -24 0 -22 -119 -264 -190 -387 -146 -255 -378 -555
-590 -763 -74 -73 -247 -226 -305 -270 -30 -22 -30 -22 -3 -13 62 23 131 63
119 71 -10 5 -9 9 4 13 9 4 13 3 10 -3 -37 -61 374 193 571 353 43 34 100 81
128 103 105 85 269 251 261 264 -6 9 -4 11 4 6 28 -18 295 307 453 549 243
374 430 830 518 1265 48 241 61 360 67 625 6 269 -3 403 -39 628 -17 108 -25
137 -38 136 -8 0 -51 -11 -95 -23z m-2014 -2749 c-10 -9 -11 -8 -5 6 3 10 9
15 12 12 3 -3 0 -11 -7 -18z m-20 -50 c-10 -9 -11 -8 -5 6 3 10 9 15 12 12 3
-3 0 -11 -7 -18z"/>
</g>
</svg>
